<svg xmlns="http://www.w3.org/2000/svg" width="23" height="19" viewBox="0 0 23 19">
    <g fill="#FFF">
        <path d="M6.328 11.25H3.516c-.389 0-.703-.315-.703-.703 0-.388.314-.703.703-.703h2.109V5.625h-2.11c-.388 0-.702-.315-.702-.703 0-.388.314-.703.703-.703h2.812c.388 0 .703.315.703.703v5.625c0 .388-.315.703-.703.703zM11.25 11.25H9.844c-.777 0-1.406-.63-1.406-1.406V5.625c0-.777.63-1.406 1.406-1.406h2.11c.387 0 .702.315.702.703 0 .388-.315.703-.703.703h-2.11v1.406h1.407c.777 0 1.406.63 1.406 1.407v1.406c0 .776-.63 1.406-1.406 1.406zM9.844 8.438v1.406h1.406V8.438H9.844zM16.875 11.25h-1.406c-.777 0-1.406-.63-1.406-1.406V5.625c0-.777.63-1.406 1.406-1.406h1.406c.777 0 1.406.63 1.406 1.406v4.219c0 .776-.63 1.406-1.406 1.406zm-1.406-5.625v4.219h1.406V5.625h-1.406z"/>
        <path d="M6.328 8.438H3.516c-.389 0-.703-.315-.703-.704 0-.388.314-.703.703-.703h2.812c.388 0 .703.315.703.703 0 .389-.315.704-.703.704zM11.25 16.875C4.942 16.875 0 14.405 0 11.25c.057-1.205.678-2.312 1.676-2.988.307-.24.749-.185.988.121.24.307.185.75-.121.988-.642.424-1.06 1.114-1.137 1.879 0 1.995 4.043 4.219 9.844 4.219.388 0 .703.315.703.703 0 .388-.315.703-.703.703zM13.36 16.777c-.389.018-.719-.281-.737-.67-.02-.388.28-.718.669-.737 4.448-.426 7.802-2.2 7.802-4.12-.077-.765-.495-1.455-1.136-1.879-.306-.239-.36-.68-.121-.987.239-.306.68-.36.987-.12.998.675 1.62 1.782 1.676 2.986 0 2.735-3.73 5.008-9.073 5.524l-.068.003z"/>
        <path d="M9.14 18.984c-.388.001-.703-.313-.704-.701 0-.188.074-.367.207-.5l1.613-1.611-1.613-1.612c-.275-.275-.275-.72 0-.995s.72-.275.995 0l2.11 2.11c.275.273.275.718.001.993l-.001.002-2.11 2.11c-.132.13-.31.205-.497.204zM20.39 4.219c-1.164 0-2.109-.945-2.109-2.11S19.226 0 20.391 0 22.5.944 22.5 2.11c0 1.164-.944 2.109-2.11 2.109zm0-2.813c-.388 0-.702.315-.702.703 0 .389.314.704.703.704.388 0 .703-.315.703-.704 0-.388-.315-.703-.703-.703z"/>
    </g>
</svg>
