<svg xmlns="http://www.w3.org/2000/svg" width="48" height="48" viewBox="0 0 48 48">
    <g fill="none">
        <circle cx="23.964" cy="23.964" r="23.964" fill="#64798A"/>
        <path fill="#EBF0F3" d="M45.27 23.964c0-11.768-9.539-21.307-21.306-21.307-11.768 0-21.307 9.54-21.307 21.307 0 3.049.645 5.946 1.799 8.569h39.016c1.154-2.623 1.799-5.52 1.799-8.57z"/>
        <path fill="#D5D6DB" d="M4.456 32.533c3.299 7.5 10.79 12.738 19.508 12.738s16.209-5.239 19.508-12.738H4.456z"/>
        <path fill="#D15241" d="M44.111 23.866h-3.84c0 .033.003.065.003.098 0 4.479-1.806 8.535-4.73 11.483l2.715 2.715c3.618-3.643 5.854-8.659 5.854-14.198l-.002-.098z"/>
        <path fill="#E56353" d="M40.272 23.866h3.839c-.026-5.55-2.296-10.57-5.95-14.198l-2.714 2.715c2.959 2.934 4.798 6.993 4.825 11.483z"/>
        <path fill="#44C4A1" d="M23.964 7.653V3.814c-5.54 0-10.556 2.236-14.198 5.854l2.715 2.715c2.947-2.923 7.004-4.73 11.483-4.73z"/>
        <path fill="#3EA69B" d="M35.447 12.383l2.715-2.715c-3.643-3.617-8.659-5.854-14.198-5.854v3.84c4.479 0 8.535 1.806 11.483 4.73z"/>
        <path fill="#FCD462" d="M7.653 23.964c0-.033.003-.065.003-.098h-3.84l-.002.098c0 5.54 2.237 10.555 5.854 14.198l2.715-2.715c-2.923-2.948-4.73-7.004-4.73-11.483z"/>
        <path fill="#F7BE56" d="M12.48 12.383L9.767 9.668c-3.654 3.629-5.923 8.648-5.95 14.198h3.84c.026-4.49 1.866-8.549 4.825-11.483z"/>
        <g fill="#64798A">
            <path d="M1.631.003H.563c-.3 0-.545.245-.545.546V3.29c0 .302.244.546.545.546h1.068c.302 0 .546-.244.546-.546V.55c0-.301-.244-.546-.546-.546zM5.14.003H4.072c-.301 0-.545.245-.545.546V3.29c0 .302.244.546.545.546H5.14c.301 0 .546-.244.546-.546V.55c0-.301-.245-.546-.546-.546zM8.649.003H7.58c-.302 0-.546.245-.546.546V3.29c0 .302.244.546.546.546h1.068c.301 0 .545-.244.545-.546V.55c0-.301-.244-.546-.545-.546zM12.157.003H11.09c-.301 0-.545.245-.545.546V3.29c0 .302.244.546.545.546h1.068c.302 0 .546-.244.546-.546V.55c0-.301-.244-.546-.546-.546z" transform="translate(17.603 37.049)"/>
        </g>
        <path fill="#3A556A" d="M24.474 10.171c-.004-.279-.231-.503-.51-.503-.28 0-.507.224-.51.503l-.275 19.378h1.57l-.275-19.378z"/>
        <path fill="#64798A" d="M26.721 32.572c.114-.313.186-.646.186-.998 0-1.625-1.318-2.942-2.943-2.942s-2.943 1.317-2.943 2.942c0 .352.072.685.185.998h5.515z"/>
    </g>
</svg>
