<svg xmlns="http://www.w3.org/2000/svg" width="31" height="48" viewBox="0 0 31 48">
    <g fill="none">
        <path fill="#D5D6DB" d="M27.78 19.891H2.731c-1.508 0-2.73 1.223-2.73 2.73v22.55c0 1.507 1.222 2.73 2.73 2.73H27.78c1.508 0 2.73-1.223 2.73-2.73V22.62c0-1.507-1.222-2.73-2.73-2.73z"/>
        <path fill="#2F4859" d="M24.823 23.368c-1.173 0-2.124.951-2.124 2.124v6.303H8.011v-6.303c0-1.173-.95-2.124-2.123-2.124-1.173 0-2.124.951-2.124 2.124v16.856c0 1.173.951 2.124 2.124 2.124 1.172 0 2.123-.951 2.123-2.124v-6.305h5.22v6.305c0 1.173.951 2.124 2.124 2.124 1.172 0 2.123-.951 2.123-2.124v-6.305H22.7v6.305c0 1.173.951 2.124 2.124 2.124s2.123-.951 2.123-2.124V25.492c0-1.173-.95-2.124-2.123-2.124z"/>
        <path fill="#64798A" d="M13.453 14.594v17.41c0 1.045.847 1.892 1.892 1.892s1.892-.847 1.892-1.892v-17.41h-3.784z"/>
        <circle cx="15.345" cy="8.041" r="8.041" fill="#2F4859"/>
        <ellipse cx="11.623" cy="4.709" fill="#64798A" rx="1" ry="2.247" transform="rotate(-151.359 11.623 4.709)"/>
    </g>
</svg>
