<svg xmlns="http://www.w3.org/2000/svg" width="11" height="10" viewBox="0 0 11 10">
    <path fill="#FFF" d="M1.292 1.292c-1.88 1.88-1.68 5.1.42 7.22 1.28 1.28 3.82 1.38 5.38 1.2.087-.014.16-.075.19-.158.029-.084.01-.177-.05-.242-1.1-1.1-1.06-1.66-.12-2.6.94-.94 1.58-1.42 2.68-.32.065.06.158.079.242.05.083-.03.144-.103.158-.19.153-1.69-.464-3.358-1.68-4.54-2.12-2.1-5.34-2.3-7.22-.42m1.42 5.38c-.314.308-.818.306-1.129-.006-.31-.312-.31-.817 0-1.129.31-.312.815-.314 1.129-.005.152.15.238.355.238.57 0 .214-.086.42-.238.57m-.28-2.54c-.314.308-.818.306-1.129-.006-.31-.312-.31-.817 0-1.129.31-.312.815-.314 1.129-.005.152.15.238.355.238.57 0 .214-.086.42-.238.57m1.7-1.7c-.314.308-.818.306-1.129-.006-.31-.312-.31-.817 0-1.129.31-.312.815-.314 1.129-.005.152.15.238.355.238.57 0 .214-.086.42-.238.57m2.54.28c-.314.308-.818.306-1.129-.006-.31-.312-.31-.817 0-1.129.31-.312.815-.314 1.129-.005.152.15.238.355.238.57 0 .214-.086.42-.238.57"/>
</svg>
